<?xml version="1.0" encoding="utf-8" standalone="no"?>
<!DOCTYPE svg PUBLIC "-//W3C//DTD SVG 1.1//EN"
  "http://www.w3.org/Graphics/SVG/1.1/DTD/svg11.dtd">
<!-- Created with matplotlib (https://matplotlib.org/) -->
<svg height="345.6pt" version="1.1" viewBox="0 0 460.8 345.6" width="460.8pt" xmlns="http://www.w3.org/2000/svg" xmlns:xlink="http://www.w3.org/1999/xlink">
 <defs>
  <style type="text/css">
*{stroke-linecap:butt;stroke-linejoin:round;}
  </style>
 </defs>
 <g id="figure_1">
  <g id="patch_1">
   <path d="M 0 345.6 
L 460.8 345.6 
L 460.8 0 
L 0 0 
z
" style="fill:#ffffff;"/>
  </g>
  <g id="axes_1">
   <g id="patch_2">
    <path d="M 57.6 307.584 
L 414.72 307.584 
L 414.72 41.472 
L 57.6 41.472 
z
" style="fill:#ffffff;"/>
   </g>
   <g id="matplotlib.axis_1">
    <g id="xtick_1">
     <g id="line2d_1">
      <defs>
       <path d="M 0 0 
L 0 3.5 
" id="m4d24e69b6d" style="stroke:#000000;stroke-width:0.8;"/>
      </defs>
      <g>
       <use style="stroke:#000000;stroke-width:0.8;" x="73.709133" xlink:href="#m4d24e69b6d" y="307.584"/>
      </g>
     </g>
     <g id="text_1">
      <!-- 0 -->
      <defs>
       <path d="M 31.78125 66.40625 
Q 24.171875 66.40625 20.328125 58.90625 
Q 16.5 51.421875 16.5 36.375 
Q 16.5 21.390625 20.328125 13.890625 
Q 24.171875 6.390625 31.78125 6.390625 
Q 39.453125 6.390625 43.28125 13.890625 
Q 47.125 21.390625 47.125 36.375 
Q 47.125 51.421875 43.28125 58.90625 
Q 39.453125 66.40625 31.78125 66.40625 
z
M 31.78125 74.21875 
Q 44.046875 74.21875 50.515625 64.515625 
Q 56.984375 54.828125 56.984375 36.375 
Q 56.984375 17.96875 50.515625 8.265625 
Q 44.046875 -1.421875 31.78125 -1.421875 
Q 19.53125 -1.421875 13.0625 8.265625 
Q 6.59375 17.96875 6.59375 36.375 
Q 6.59375 54.828125 13.0625 64.515625 
Q 19.53125 74.21875 31.78125 74.21875 
z
" id="DejaVuSans-48"/>
      </defs>
      <g transform="translate(70.527883 322.182437)scale(0.1 -0.1)">
       <use xlink:href="#DejaVuSans-48"/>
      </g>
     </g>
    </g>
    <g id="xtick_2">
     <g id="line2d_2">
      <g>
       <use style="stroke:#000000;stroke-width:0.8;" x="127.201811" xlink:href="#m4d24e69b6d" y="307.584"/>
      </g>
     </g>
     <g id="text_2">
      <!-- 1 -->
      <defs>
       <path d="M 12.40625 8.296875 
L 28.515625 8.296875 
L 28.515625 63.921875 
L 10.984375 60.40625 
L 10.984375 69.390625 
L 28.421875 72.90625 
L 38.28125 72.90625 
L 38.28125 8.296875 
L 54.390625 8.296875 
L 54.390625 0 
L 12.40625 0 
z
" id="DejaVuSans-49"/>
      </defs>
      <g transform="translate(124.020561 322.182437)scale(0.1 -0.1)">
       <use xlink:href="#DejaVuSans-49"/>
      </g>
     </g>
    </g>
    <g id="xtick_3">
     <g id="line2d_3">
      <g>
       <use style="stroke:#000000;stroke-width:0.8;" x="180.694488" xlink:href="#m4d24e69b6d" y="307.584"/>
      </g>
     </g>
     <g id="text_3">
      <!-- 2 -->
      <defs>
       <path d="M 19.1875 8.296875 
L 53.609375 8.296875 
L 53.609375 0 
L 7.328125 0 
L 7.328125 8.296875 
Q 12.9375 14.109375 22.625 23.890625 
Q 32.328125 33.6875 34.8125 36.53125 
Q 39.546875 41.84375 41.421875 45.53125 
Q 43.3125 49.21875 43.3125 52.78125 
Q 43.3125 58.59375 39.234375 62.25 
Q 35.15625 65.921875 28.609375 65.921875 
Q 23.96875 65.921875 18.8125 64.3125 
Q 13.671875 62.703125 7.8125 59.421875 
L 7.8125 69.390625 
Q 13.765625 71.78125 18.9375 73 
Q 24.125 74.21875 28.421875 74.21875 
Q 39.75 74.21875 46.484375 68.546875 
Q 53.21875 62.890625 53.21875 53.421875 
Q 53.21875 48.921875 51.53125 44.890625 
Q 49.859375 40.875 45.40625 35.40625 
Q 44.1875 33.984375 37.640625 27.21875 
Q 31.109375 20.453125 19.1875 8.296875 
z
" id="DejaVuSans-50"/>
      </defs>
      <g transform="translate(177.513238 322.182437)scale(0.1 -0.1)">
       <use xlink:href="#DejaVuSans-50"/>
      </g>
     </g>
    </g>
    <g id="xtick_4">
     <g id="line2d_4">
      <g>
       <use style="stroke:#000000;stroke-width:0.8;" x="234.187166" xlink:href="#m4d24e69b6d" y="307.584"/>
      </g>
     </g>
     <g id="text_4">
      <!-- 3 -->
      <defs>
       <path d="M 40.578125 39.3125 
Q 47.65625 37.796875 51.625 33 
Q 55.609375 28.21875 55.609375 21.1875 
Q 55.609375 10.40625 48.1875 4.484375 
Q 40.765625 -1.421875 27.09375 -1.421875 
Q 22.515625 -1.421875 17.65625 -0.515625 
Q 12.796875 0.390625 7.625 2.203125 
L 7.625 11.71875 
Q 11.71875 9.328125 16.59375 8.109375 
Q 21.484375 6.890625 26.8125 6.890625 
Q 36.078125 6.890625 40.9375 10.546875 
Q 45.796875 14.203125 45.796875 21.1875 
Q 45.796875 27.640625 41.28125 31.265625 
Q 36.765625 34.90625 28.71875 34.90625 
L 20.21875 34.90625 
L 20.21875 43.015625 
L 29.109375 43.015625 
Q 36.375 43.015625 40.234375 45.921875 
Q 44.09375 48.828125 44.09375 54.296875 
Q 44.09375 59.90625 40.109375 62.90625 
Q 36.140625 65.921875 28.71875 65.921875 
Q 24.65625 65.921875 20.015625 65.03125 
Q 15.375 64.15625 9.8125 62.3125 
L 9.8125 71.09375 
Q 15.4375 72.65625 20.34375 73.4375 
Q 25.25 74.21875 29.59375 74.21875 
Q 40.828125 74.21875 47.359375 69.109375 
Q 53.90625 64.015625 53.90625 55.328125 
Q 53.90625 49.265625 50.4375 45.09375 
Q 46.96875 40.921875 40.578125 39.3125 
z
" id="DejaVuSans-51"/>
      </defs>
      <g transform="translate(231.005916 322.182437)scale(0.1 -0.1)">
       <use xlink:href="#DejaVuSans-51"/>
      </g>
     </g>
    </g>
    <g id="xtick_5">
     <g id="line2d_5">
      <g>
       <use style="stroke:#000000;stroke-width:0.8;" x="287.679843" xlink:href="#m4d24e69b6d" y="307.584"/>
      </g>
     </g>
     <g id="text_5">
      <!-- 4 -->
      <defs>
       <path d="M 37.796875 64.3125 
L 12.890625 25.390625 
L 37.796875 25.390625 
z
M 35.203125 72.90625 
L 47.609375 72.90625 
L 47.609375 25.390625 
L 58.015625 25.390625 
L 58.015625 17.1875 
L 47.609375 17.1875 
L 47.609375 0 
L 37.796875 0 
L 37.796875 17.1875 
L 4.890625 17.1875 
L 4.890625 26.703125 
z
" id="DejaVuSans-52"/>
      </defs>
      <g transform="translate(284.498593 322.182437)scale(0.1 -0.1)">
       <use xlink:href="#DejaVuSans-52"/>
      </g>
     </g>
    </g>
    <g id="xtick_6">
     <g id="line2d_6">
      <g>
       <use style="stroke:#000000;stroke-width:0.8;" x="341.172521" xlink:href="#m4d24e69b6d" y="307.584"/>
      </g>
     </g>
     <g id="text_6">
      <!-- 5 -->
      <defs>
       <path d="M 10.796875 72.90625 
L 49.515625 72.90625 
L 49.515625 64.59375 
L 19.828125 64.59375 
L 19.828125 46.734375 
Q 21.96875 47.46875 24.109375 47.828125 
Q 26.265625 48.1875 28.421875 48.1875 
Q 40.625 48.1875 47.75 41.5 
Q 54.890625 34.8125 54.890625 23.390625 
Q 54.890625 11.625 47.5625 5.09375 
Q 40.234375 -1.421875 26.90625 -1.421875 
Q 22.3125 -1.421875 17.546875 -0.640625 
Q 12.796875 0.140625 7.71875 1.703125 
L 7.71875 11.625 
Q 12.109375 9.234375 16.796875 8.0625 
Q 21.484375 6.890625 26.703125 6.890625 
Q 35.15625 6.890625 40.078125 11.328125 
Q 45.015625 15.765625 45.015625 23.390625 
Q 45.015625 31 40.078125 35.4375 
Q 35.15625 39.890625 26.703125 39.890625 
Q 22.75 39.890625 18.8125 39.015625 
Q 14.890625 38.140625 10.796875 36.28125 
z
" id="DejaVuSans-53"/>
      </defs>
      <g transform="translate(337.991271 322.182437)scale(0.1 -0.1)">
       <use xlink:href="#DejaVuSans-53"/>
      </g>
     </g>
    </g>
    <g id="xtick_7">
     <g id="line2d_7">
      <g>
       <use style="stroke:#000000;stroke-width:0.8;" x="394.665199" xlink:href="#m4d24e69b6d" y="307.584"/>
      </g>
     </g>
     <g id="text_7">
      <!-- 6 -->
      <defs>
       <path d="M 33.015625 40.375 
Q 26.375 40.375 22.484375 35.828125 
Q 18.609375 31.296875 18.609375 23.390625 
Q 18.609375 15.53125 22.484375 10.953125 
Q 26.375 6.390625 33.015625 6.390625 
Q 39.65625 6.390625 43.53125 10.953125 
Q 47.40625 15.53125 47.40625 23.390625 
Q 47.40625 31.296875 43.53125 35.828125 
Q 39.65625 40.375 33.015625 40.375 
z
M 52.59375 71.296875 
L 52.59375 62.3125 
Q 48.875 64.0625 45.09375 64.984375 
Q 41.3125 65.921875 37.59375 65.921875 
Q 27.828125 65.921875 22.671875 59.328125 
Q 17.53125 52.734375 16.796875 39.40625 
Q 19.671875 43.65625 24.015625 45.921875 
Q 28.375 48.1875 33.59375 48.1875 
Q 44.578125 48.1875 50.953125 41.515625 
Q 57.328125 34.859375 57.328125 23.390625 
Q 57.328125 12.15625 50.6875 5.359375 
Q 44.046875 -1.421875 33.015625 -1.421875 
Q 20.359375 -1.421875 13.671875 8.265625 
Q 6.984375 17.96875 6.984375 36.375 
Q 6.984375 53.65625 15.1875 63.9375 
Q 23.390625 74.21875 37.203125 74.21875 
Q 40.921875 74.21875 44.703125 73.484375 
Q 48.484375 72.75 52.59375 71.296875 
z
" id="DejaVuSans-54"/>
      </defs>
      <g transform="translate(391.483949 322.182437)scale(0.1 -0.1)">
       <use xlink:href="#DejaVuSans-54"/>
      </g>
     </g>
    </g>
    <g id="text_8">
     <!-- Theoretical quantiles -->
     <defs>
      <path d="M -0.296875 72.90625 
L 61.375 72.90625 
L 61.375 64.59375 
L 35.5 64.59375 
L 35.5 0 
L 25.59375 0 
L 25.59375 64.59375 
L -0.296875 64.59375 
z
" id="DejaVuSans-84"/>
      <path d="M 54.890625 33.015625 
L 54.890625 0 
L 45.90625 0 
L 45.90625 32.71875 
Q 45.90625 40.484375 42.875 44.328125 
Q 39.84375 48.1875 33.796875 48.1875 
Q 26.515625 48.1875 22.3125 43.546875 
Q 18.109375 38.921875 18.109375 30.90625 
L 18.109375 0 
L 9.078125 0 
L 9.078125 75.984375 
L 18.109375 75.984375 
L 18.109375 46.1875 
Q 21.34375 51.125 25.703125 53.5625 
Q 30.078125 56 35.796875 56 
Q 45.21875 56 50.046875 50.171875 
Q 54.890625 44.34375 54.890625 33.015625 
z
" id="DejaVuSans-104"/>
      <path d="M 56.203125 29.59375 
L 56.203125 25.203125 
L 14.890625 25.203125 
Q 15.484375 15.921875 20.484375 11.0625 
Q 25.484375 6.203125 34.421875 6.203125 
Q 39.59375 6.203125 44.453125 7.46875 
Q 49.3125 8.734375 54.109375 11.28125 
L 54.109375 2.78125 
Q 49.265625 0.734375 44.1875 -0.34375 
Q 39.109375 -1.421875 33.890625 -1.421875 
Q 20.796875 -1.421875 13.15625 6.1875 
Q 5.515625 13.8125 5.515625 26.8125 
Q 5.515625 40.234375 12.765625 48.109375 
Q 20.015625 56 32.328125 56 
Q 43.359375 56 49.78125 48.890625 
Q 56.203125 41.796875 56.203125 29.59375 
z
M 47.21875 32.234375 
Q 47.125 39.59375 43.09375 43.984375 
Q 39.0625 48.390625 32.421875 48.390625 
Q 24.90625 48.390625 20.390625 44.140625 
Q 15.875 39.890625 15.1875 32.171875 
z
" id="DejaVuSans-101"/>
      <path d="M 30.609375 48.390625 
Q 23.390625 48.390625 19.1875 42.75 
Q 14.984375 37.109375 14.984375 27.296875 
Q 14.984375 17.484375 19.15625 11.84375 
Q 23.34375 6.203125 30.609375 6.203125 
Q 37.796875 6.203125 41.984375 11.859375 
Q 46.1875 17.53125 46.1875 27.296875 
Q 46.1875 37.015625 41.984375 42.703125 
Q 37.796875 48.390625 30.609375 48.390625 
z
M 30.609375 56 
Q 42.328125 56 49.015625 48.375 
Q 55.71875 40.765625 55.71875 27.296875 
Q 55.71875 13.875 49.015625 6.21875 
Q 42.328125 -1.421875 30.609375 -1.421875 
Q 18.84375 -1.421875 12.171875 6.21875 
Q 5.515625 13.875 5.515625 27.296875 
Q 5.515625 40.765625 12.171875 48.375 
Q 18.84375 56 30.609375 56 
z
" id="DejaVuSans-111"/>
      <path d="M 41.109375 46.296875 
Q 39.59375 47.171875 37.8125 47.578125 
Q 36.03125 48 33.890625 48 
Q 26.265625 48 22.1875 43.046875 
Q 18.109375 38.09375 18.109375 28.8125 
L 18.109375 0 
L 9.078125 0 
L 9.078125 54.6875 
L 18.109375 54.6875 
L 18.109375 46.1875 
Q 20.953125 51.171875 25.484375 53.578125 
Q 30.03125 56 36.53125 56 
Q 37.453125 56 38.578125 55.875 
Q 39.703125 55.765625 41.0625 55.515625 
z
" id="DejaVuSans-114"/>
      <path d="M 18.3125 70.21875 
L 18.3125 54.6875 
L 36.8125 54.6875 
L 36.8125 47.703125 
L 18.3125 47.703125 
L 18.3125 18.015625 
Q 18.3125 11.328125 20.140625 9.421875 
Q 21.96875 7.515625 27.59375 7.515625 
L 36.8125 7.515625 
L 36.8125 0 
L 27.59375 0 
Q 17.1875 0 13.234375 3.875 
Q 9.28125 7.765625 9.28125 18.015625 
L 9.28125 47.703125 
L 2.6875 47.703125 
L 2.6875 54.6875 
L 9.28125 54.6875 
L 9.28125 70.21875 
z
" id="DejaVuSans-116"/>
      <path d="M 9.421875 54.6875 
L 18.40625 54.6875 
L 18.40625 0 
L 9.421875 0 
z
M 9.421875 75.984375 
L 18.40625 75.984375 
L 18.40625 64.59375 
L 9.421875 64.59375 
z
" id="DejaVuSans-105"/>
      <path d="M 48.78125 52.59375 
L 48.78125 44.1875 
Q 44.96875 46.296875 41.140625 47.34375 
Q 37.3125 48.390625 33.40625 48.390625 
Q 24.65625 48.390625 19.8125 42.84375 
Q 14.984375 37.3125 14.984375 27.296875 
Q 14.984375 17.28125 19.8125 11.734375 
Q 24.65625 6.203125 33.40625 6.203125 
Q 37.3125 6.203125 41.140625 7.25 
Q 44.96875 8.296875 48.78125 10.40625 
L 48.78125 2.09375 
Q 45.015625 0.34375 40.984375 -0.53125 
Q 36.96875 -1.421875 32.421875 -1.421875 
Q 20.0625 -1.421875 12.78125 6.34375 
Q 5.515625 14.109375 5.515625 27.296875 
Q 5.515625 40.671875 12.859375 48.328125 
Q 20.21875 56 33.015625 56 
Q 37.15625 56 41.109375 55.140625 
Q 45.0625 54.296875 48.78125 52.59375 
z
" id="DejaVuSans-99"/>
      <path d="M 34.28125 27.484375 
Q 23.390625 27.484375 19.1875 25 
Q 14.984375 22.515625 14.984375 16.5 
Q 14.984375 11.71875 18.140625 8.90625 
Q 21.296875 6.109375 26.703125 6.109375 
Q 34.1875 6.109375 38.703125 11.40625 
Q 43.21875 16.703125 43.21875 25.484375 
L 43.21875 27.484375 
z
M 52.203125 31.203125 
L 52.203125 0 
L 43.21875 0 
L 43.21875 8.296875 
Q 40.140625 3.328125 35.546875 0.953125 
Q 30.953125 -1.421875 24.3125 -1.421875 
Q 15.921875 -1.421875 10.953125 3.296875 
Q 6 8.015625 6 15.921875 
Q 6 25.140625 12.171875 29.828125 
Q 18.359375 34.515625 30.609375 34.515625 
L 43.21875 34.515625 
L 43.21875 35.40625 
Q 43.21875 41.609375 39.140625 45 
Q 35.0625 48.390625 27.6875 48.390625 
Q 23 48.390625 18.546875 47.265625 
Q 14.109375 46.140625 10.015625 43.890625 
L 10.015625 52.203125 
Q 14.9375 54.109375 19.578125 55.046875 
Q 24.21875 56 28.609375 56 
Q 40.484375 56 46.34375 49.84375 
Q 52.203125 43.703125 52.203125 31.203125 
z
" id="DejaVuSans-97"/>
      <path d="M 9.421875 75.984375 
L 18.40625 75.984375 
L 18.40625 0 
L 9.421875 0 
z
" id="DejaVuSans-108"/>
      <path id="DejaVuSans-32"/>
      <path d="M 14.796875 27.296875 
Q 14.796875 17.390625 18.875 11.75 
Q 22.953125 6.109375 30.078125 6.109375 
Q 37.203125 6.109375 41.296875 11.75 
Q 45.40625 17.390625 45.40625 27.296875 
Q 45.40625 37.203125 41.296875 42.84375 
Q 37.203125 48.484375 30.078125 48.484375 
Q 22.953125 48.484375 18.875 42.84375 
Q 14.796875 37.203125 14.796875 27.296875 
z
M 45.40625 8.203125 
Q 42.578125 3.328125 38.25 0.953125 
Q 33.9375 -1.421875 27.875 -1.421875 
Q 17.96875 -1.421875 11.734375 6.484375 
Q 5.515625 14.40625 5.515625 27.296875 
Q 5.515625 40.1875 11.734375 48.09375 
Q 17.96875 56 27.875 56 
Q 33.9375 56 38.25 53.625 
Q 42.578125 51.265625 45.40625 46.390625 
L 45.40625 54.6875 
L 54.390625 54.6875 
L 54.390625 -20.796875 
L 45.40625 -20.796875 
z
" id="DejaVuSans-113"/>
      <path d="M 8.5 21.578125 
L 8.5 54.6875 
L 17.484375 54.6875 
L 17.484375 21.921875 
Q 17.484375 14.15625 20.5 10.265625 
Q 23.53125 6.390625 29.59375 6.390625 
Q 36.859375 6.390625 41.078125 11.03125 
Q 45.3125 15.671875 45.3125 23.6875 
L 45.3125 54.6875 
L 54.296875 54.6875 
L 54.296875 0 
L 45.3125 0 
L 45.3125 8.40625 
Q 42.046875 3.421875 37.71875 1 
Q 33.40625 -1.421875 27.6875 -1.421875 
Q 18.265625 -1.421875 13.375 4.4375 
Q 8.5 10.296875 8.5 21.578125 
z
M 31.109375 56 
z
" id="DejaVuSans-117"/>
      <path d="M 54.890625 33.015625 
L 54.890625 0 
L 45.90625 0 
L 45.90625 32.71875 
Q 45.90625 40.484375 42.875 44.328125 
Q 39.84375 48.1875 33.796875 48.1875 
Q 26.515625 48.1875 22.3125 43.546875 
Q 18.109375 38.921875 18.109375 30.90625 
L 18.109375 0 
L 9.078125 0 
L 9.078125 54.6875 
L 18.109375 54.6875 
L 18.109375 46.1875 
Q 21.34375 51.125 25.703125 53.5625 
Q 30.078125 56 35.796875 56 
Q 45.21875 56 50.046875 50.171875 
Q 54.890625 44.34375 54.890625 33.015625 
z
" id="DejaVuSans-110"/>
      <path d="M 44.28125 53.078125 
L 44.28125 44.578125 
Q 40.484375 46.53125 36.375 47.5 
Q 32.28125 48.484375 27.875 48.484375 
Q 21.1875 48.484375 17.84375 46.4375 
Q 14.5 44.390625 14.5 40.28125 
Q 14.5 37.15625 16.890625 35.375 
Q 19.28125 33.59375 26.515625 31.984375 
L 29.59375 31.296875 
Q 39.15625 29.25 43.1875 25.515625 
Q 47.21875 21.78125 47.21875 15.09375 
Q 47.21875 7.46875 41.1875 3.015625 
Q 35.15625 -1.421875 24.609375 -1.421875 
Q 20.21875 -1.421875 15.453125 -0.5625 
Q 10.6875 0.296875 5.421875 2 
L 5.421875 11.28125 
Q 10.40625 8.6875 15.234375 7.390625 
Q 20.0625 6.109375 24.8125 6.109375 
Q 31.15625 6.109375 34.5625 8.28125 
Q 37.984375 10.453125 37.984375 14.40625 
Q 37.984375 18.0625 35.515625 20.015625 
Q 33.0625 21.96875 24.703125 23.78125 
L 21.578125 24.515625 
Q 13.234375 26.265625 9.515625 29.90625 
Q 5.8125 33.546875 5.8125 39.890625 
Q 5.8125 47.609375 11.28125 51.796875 
Q 16.75 56 26.8125 56 
Q 31.78125 56 36.171875 55.265625 
Q 40.578125 54.546875 44.28125 53.078125 
z
" id="DejaVuSans-115"/>
     </defs>
     <g transform="translate(183.535 335.860562)scale(0.1 -0.1)">
      <use xlink:href="#DejaVuSans-84"/>
      <use x="61.083984" xlink:href="#DejaVuSans-104"/>
      <use x="124.462891" xlink:href="#DejaVuSans-101"/>
      <use x="185.986328" xlink:href="#DejaVuSans-111"/>
      <use x="247.167969" xlink:href="#DejaVuSans-114"/>
      <use x="288.25" xlink:href="#DejaVuSans-101"/>
      <use x="349.773438" xlink:href="#DejaVuSans-116"/>
      <use x="388.982422" xlink:href="#DejaVuSans-105"/>
      <use x="416.765625" xlink:href="#DejaVuSans-99"/>
      <use x="471.746094" xlink:href="#DejaVuSans-97"/>
      <use x="533.025391" xlink:href="#DejaVuSans-108"/>
      <use x="560.808594" xlink:href="#DejaVuSans-32"/>
      <use x="592.595703" xlink:href="#DejaVuSans-113"/>
      <use x="656.072266" xlink:href="#DejaVuSans-117"/>
      <use x="719.451172" xlink:href="#DejaVuSans-97"/>
      <use x="780.730469" xlink:href="#DejaVuSans-110"/>
      <use x="844.109375" xlink:href="#DejaVuSans-116"/>
      <use x="883.318359" xlink:href="#DejaVuSans-105"/>
      <use x="911.101562" xlink:href="#DejaVuSans-108"/>
      <use x="938.884766" xlink:href="#DejaVuSans-101"/>
      <use x="1000.408203" xlink:href="#DejaVuSans-115"/>
     </g>
    </g>
   </g>
   <g id="matplotlib.axis_2">
    <g id="ytick_1">
     <g id="line2d_8">
      <defs>
       <path d="M 0 0 
L -3.5 0 
" id="m7d70dcdc6b" style="stroke:#000000;stroke-width:0.8;"/>
      </defs>
      <g>
       <use style="stroke:#000000;stroke-width:0.8;" x="57.6" xlink:href="#m7d70dcdc6b" y="295.582002"/>
      </g>
     </g>
     <g id="text_9">
      <!-- 0 -->
      <g transform="translate(44.2375 299.381221)scale(0.1 -0.1)">
       <use xlink:href="#DejaVuSans-48"/>
      </g>
     </g>
    </g>
    <g id="ytick_2">
     <g id="line2d_9">
      <g>
       <use style="stroke:#000000;stroke-width:0.8;" x="57.6" xlink:href="#m7d70dcdc6b" y="254.747459"/>
      </g>
     </g>
     <g id="text_10">
      <!-- 1 -->
      <g transform="translate(44.2375 258.546677)scale(0.1 -0.1)">
       <use xlink:href="#DejaVuSans-49"/>
      </g>
     </g>
    </g>
    <g id="ytick_3">
     <g id="line2d_10">
      <g>
       <use style="stroke:#000000;stroke-width:0.8;" x="57.6" xlink:href="#m7d70dcdc6b" y="213.912916"/>
      </g>
     </g>
     <g id="text_11">
      <!-- 2 -->
      <g transform="translate(44.2375 217.712134)scale(0.1 -0.1)">
       <use xlink:href="#DejaVuSans-50"/>
      </g>
     </g>
    </g>
    <g id="ytick_4">
     <g id="line2d_11">
      <g>
       <use style="stroke:#000000;stroke-width:0.8;" x="57.6" xlink:href="#m7d70dcdc6b" y="173.078373"/>
      </g>
     </g>
     <g id="text_12">
      <!-- 3 -->
      <g transform="translate(44.2375 176.877591)scale(0.1 -0.1)">
       <use xlink:href="#DejaVuSans-51"/>
      </g>
     </g>
    </g>
    <g id="ytick_5">
     <g id="line2d_12">
      <g>
       <use style="stroke:#000000;stroke-width:0.8;" x="57.6" xlink:href="#m7d70dcdc6b" y="132.243829"/>
      </g>
     </g>
     <g id="text_13">
      <!-- 4 -->
      <g transform="translate(44.2375 136.043048)scale(0.1 -0.1)">
       <use xlink:href="#DejaVuSans-52"/>
      </g>
     </g>
    </g>
    <g id="ytick_6">
     <g id="line2d_13">
      <g>
       <use style="stroke:#000000;stroke-width:0.8;" x="57.6" xlink:href="#m7d70dcdc6b" y="91.409286"/>
      </g>
     </g>
     <g id="text_14">
      <!-- 5 -->
      <g transform="translate(44.2375 95.208505)scale(0.1 -0.1)">
       <use xlink:href="#DejaVuSans-53"/>
      </g>
     </g>
    </g>
    <g id="ytick_7">
     <g id="line2d_14">
      <g>
       <use style="stroke:#000000;stroke-width:0.8;" x="57.6" xlink:href="#m7d70dcdc6b" y="50.574743"/>
      </g>
     </g>
     <g id="text_15">
      <!-- 6 -->
      <g transform="translate(44.2375 54.373962)scale(0.1 -0.1)">
       <use xlink:href="#DejaVuSans-54"/>
      </g>
     </g>
    </g>
    <g id="text_16">
     <!-- Ordered Values -->
     <defs>
      <path d="M 39.40625 66.21875 
Q 28.65625 66.21875 22.328125 58.203125 
Q 16.015625 50.203125 16.015625 36.375 
Q 16.015625 22.609375 22.328125 14.59375 
Q 28.65625 6.59375 39.40625 6.59375 
Q 50.140625 6.59375 56.421875 14.59375 
Q 62.703125 22.609375 62.703125 36.375 
Q 62.703125 50.203125 56.421875 58.203125 
Q 50.140625 66.21875 39.40625 66.21875 
z
M 39.40625 74.21875 
Q 54.734375 74.21875 63.90625 63.9375 
Q 73.09375 53.65625 73.09375 36.375 
Q 73.09375 19.140625 63.90625 8.859375 
Q 54.734375 -1.421875 39.40625 -1.421875 
Q 24.03125 -1.421875 14.8125 8.828125 
Q 5.609375 19.09375 5.609375 36.375 
Q 5.609375 53.65625 14.8125 63.9375 
Q 24.03125 74.21875 39.40625 74.21875 
z
" id="DejaVuSans-79"/>
      <path d="M 45.40625 46.390625 
L 45.40625 75.984375 
L 54.390625 75.984375 
L 54.390625 0 
L 45.40625 0 
L 45.40625 8.203125 
Q 42.578125 3.328125 38.25 0.953125 
Q 33.9375 -1.421875 27.875 -1.421875 
Q 17.96875 -1.421875 11.734375 6.484375 
Q 5.515625 14.40625 5.515625 27.296875 
Q 5.515625 40.1875 11.734375 48.09375 
Q 17.96875 56 27.875 56 
Q 33.9375 56 38.25 53.625 
Q 42.578125 51.265625 45.40625 46.390625 
z
M 14.796875 27.296875 
Q 14.796875 17.390625 18.875 11.75 
Q 22.953125 6.109375 30.078125 6.109375 
Q 37.203125 6.109375 41.296875 11.75 
Q 45.40625 17.390625 45.40625 27.296875 
Q 45.40625 37.203125 41.296875 42.84375 
Q 37.203125 48.484375 30.078125 48.484375 
Q 22.953125 48.484375 18.875 42.84375 
Q 14.796875 37.203125 14.796875 27.296875 
z
" id="DejaVuSans-100"/>
      <path d="M 28.609375 0 
L 0.78125 72.90625 
L 11.078125 72.90625 
L 34.1875 11.53125 
L 57.328125 72.90625 
L 67.578125 72.90625 
L 39.796875 0 
z
" id="DejaVuSans-86"/>
     </defs>
     <g transform="translate(38.157812 213.381125)rotate(-90)scale(0.1 -0.1)">
      <use xlink:href="#DejaVuSans-79"/>
      <use x="78.710938" xlink:href="#DejaVuSans-114"/>
      <use x="119.808594" xlink:href="#DejaVuSans-100"/>
      <use x="183.285156" xlink:href="#DejaVuSans-101"/>
      <use x="244.808594" xlink:href="#DejaVuSans-114"/>
      <use x="285.890625" xlink:href="#DejaVuSans-101"/>
      <use x="347.414062" xlink:href="#DejaVuSans-100"/>
      <use x="410.890625" xlink:href="#DejaVuSans-32"/>
      <use x="442.677734" xlink:href="#DejaVuSans-86"/>
      <use x="510.976562" xlink:href="#DejaVuSans-97"/>
      <use x="572.255859" xlink:href="#DejaVuSans-108"/>
      <use x="600.039062" xlink:href="#DejaVuSans-117"/>
      <use x="663.417969" xlink:href="#DejaVuSans-101"/>
      <use x="724.941406" xlink:href="#DejaVuSans-115"/>
     </g>
    </g>
   </g>
   <g id="line2d_15">
    <defs>
     <path d="M 0 3 
C 0.795609 3 1.55874 2.683901 2.12132 2.12132 
C 2.683901 1.55874 3 0.795609 3 0 
C 3 -0.795609 2.683901 -1.55874 2.12132 -2.12132 
C 1.55874 -2.683901 0.795609 -3 0 -3 
C -0.795609 -3 -1.55874 -2.683901 -2.12132 -2.12132 
C -2.683901 -1.55874 -3 -0.795609 -3 0 
C -3 0.795609 -2.683901 1.55874 -2.12132 2.12132 
C -1.55874 2.683901 -0.795609 3 0 3 
z
" id="m84dcf10111" style="stroke:#0000ff;"/>
    </defs>
    <g clip-path="url(#pb76f2b9bef)">
     <use style="fill:#0000ff;stroke:#0000ff;" x="73.832727" xlink:href="#m84dcf10111" y="295.488"/>
     <use style="fill:#0000ff;stroke:#0000ff;" x="74.009616" xlink:href="#m84dcf10111" y="295.341815"/>
     <use style="fill:#0000ff;stroke:#0000ff;" x="74.189011" xlink:href="#m84dcf10111" y="295.295722"/>
     <use style="fill:#0000ff;stroke:#0000ff;" x="74.369011" xlink:href="#m84dcf10111" y="295.294089"/>
     <use style="fill:#0000ff;stroke:#0000ff;" x="74.549618" xlink:href="#m84dcf10111" y="295.160634"/>
     <use style="fill:#0000ff;stroke:#0000ff;" x="74.730838" xlink:href="#m84dcf10111" y="295.086919"/>
     <use style="fill:#0000ff;stroke:#0000ff;" x="74.912673" xlink:href="#m84dcf10111" y="294.865622"/>
     <use style="fill:#0000ff;stroke:#0000ff;" x="75.095128" xlink:href="#m84dcf10111" y="294.807829"/>
     <use style="fill:#0000ff;stroke:#0000ff;" x="75.278208" xlink:href="#m84dcf10111" y="294.383773"/>
     <use style="fill:#0000ff;stroke:#0000ff;" x="75.461917" xlink:href="#m84dcf10111" y="294.0515"/>
     <use style="fill:#0000ff;stroke:#0000ff;" x="75.646258" xlink:href="#m84dcf10111" y="294.046692"/>
     <use style="fill:#0000ff;stroke:#0000ff;" x="75.831237" xlink:href="#m84dcf10111" y="293.736692"/>
     <use style="fill:#0000ff;stroke:#0000ff;" x="76.016858" xlink:href="#m84dcf10111" y="293.709958"/>
     <use style="fill:#0000ff;stroke:#0000ff;" x="76.203126" xlink:href="#m84dcf10111" y="293.606324"/>
     <use style="fill:#0000ff;stroke:#0000ff;" x="76.390044" xlink:href="#m84dcf10111" y="293.540355"/>
     <use style="fill:#0000ff;stroke:#0000ff;" x="76.577618" xlink:href="#m84dcf10111" y="293.311549"/>
     <use style="fill:#0000ff;stroke:#0000ff;" x="76.765851" xlink:href="#m84dcf10111" y="293.168041"/>
     <use style="fill:#0000ff;stroke:#0000ff;" x="76.95475" xlink:href="#m84dcf10111" y="293.010541"/>
     <use style="fill:#0000ff;stroke:#0000ff;" x="77.144318" xlink:href="#m84dcf10111" y="292.999285"/>
     <use style="fill:#0000ff;stroke:#0000ff;" x="77.33456" xlink:href="#m84dcf10111" y="292.969392"/>
     <use style="fill:#0000ff;stroke:#0000ff;" x="77.525481" xlink:href="#m84dcf10111" y="292.73149"/>
     <use style="fill:#0000ff;stroke:#0000ff;" x="77.717086" xlink:href="#m84dcf10111" y="292.633766"/>
     <use style="fill:#0000ff;stroke:#0000ff;" x="77.909379" xlink:href="#m84dcf10111" y="292.346194"/>
     <use style="fill:#0000ff;stroke:#0000ff;" x="78.102367" xlink:href="#m84dcf10111" y="291.483618"/>
     <use style="fill:#0000ff;stroke:#0000ff;" x="78.296053" xlink:href="#m84dcf10111" y="291.459607"/>
     <use style="fill:#0000ff;stroke:#0000ff;" x="78.490443" xlink:href="#m84dcf10111" y="291.322211"/>
     <use style="fill:#0000ff;stroke:#0000ff;" x="78.685542" xlink:href="#m84dcf10111" y="291.261516"/>
     <use style="fill:#0000ff;stroke:#0000ff;" x="78.881355" xlink:href="#m84dcf10111" y="291.209047"/>
     <use style="fill:#0000ff;stroke:#0000ff;" x="79.077888" xlink:href="#m84dcf10111" y="291.186448"/>
     <use style="fill:#0000ff;stroke:#0000ff;" x="79.275145" xlink:href="#m84dcf10111" y="291.074429"/>
     <use style="fill:#0000ff;stroke:#0000ff;" x="79.473133" xlink:href="#m84dcf10111" y="291.033701"/>
     <use style="fill:#0000ff;stroke:#0000ff;" x="79.671856" xlink:href="#m84dcf10111" y="290.996962"/>
     <use style="fill:#0000ff;stroke:#0000ff;" x="79.87132" xlink:href="#m84dcf10111" y="290.690609"/>
     <use style="fill:#0000ff;stroke:#0000ff;" x="80.07153" xlink:href="#m84dcf10111" y="290.628304"/>
     <use style="fill:#0000ff;stroke:#0000ff;" x="80.272493" xlink:href="#m84dcf10111" y="290.486688"/>
     <use style="fill:#0000ff;stroke:#0000ff;" x="80.474213" xlink:href="#m84dcf10111" y="290.186868"/>
     <use style="fill:#0000ff;stroke:#0000ff;" x="80.676697" xlink:href="#m84dcf10111" y="290.102879"/>
     <use style="fill:#0000ff;stroke:#0000ff;" x="80.879951" xlink:href="#m84dcf10111" y="289.716606"/>
     <use style="fill:#0000ff;stroke:#0000ff;" x="81.083979" xlink:href="#m84dcf10111" y="289.492672"/>
     <use style="fill:#0000ff;stroke:#0000ff;" x="81.288789" xlink:href="#m84dcf10111" y="289.299655"/>
     <use style="fill:#0000ff;stroke:#0000ff;" x="81.494386" xlink:href="#m84dcf10111" y="289.284382"/>
     <use style="fill:#0000ff;stroke:#0000ff;" x="81.700776" xlink:href="#m84dcf10111" y="289.192334"/>
     <use style="fill:#0000ff;stroke:#0000ff;" x="81.907966" xlink:href="#m84dcf10111" y="288.691105"/>
     <use style="fill:#0000ff;stroke:#0000ff;" x="82.115961" xlink:href="#m84dcf10111" y="288.605656"/>
     <use style="fill:#0000ff;stroke:#0000ff;" x="82.324769" xlink:href="#m84dcf10111" y="288.382329"/>
     <use style="fill:#0000ff;stroke:#0000ff;" x="82.534394" xlink:href="#m84dcf10111" y="288.331423"/>
     <use style="fill:#0000ff;stroke:#0000ff;" x="82.744844" xlink:href="#m84dcf10111" y="288.307113"/>
     <use style="fill:#0000ff;stroke:#0000ff;" x="82.956125" xlink:href="#m84dcf10111" y="288.275604"/>
     <use style="fill:#0000ff;stroke:#0000ff;" x="83.168245" xlink:href="#m84dcf10111" y="287.789642"/>
     <use style="fill:#0000ff;stroke:#0000ff;" x="83.381208" xlink:href="#m84dcf10111" y="287.67867"/>
     <use style="fill:#0000ff;stroke:#0000ff;" x="83.595023" xlink:href="#m84dcf10111" y="286.903627"/>
     <use style="fill:#0000ff;stroke:#0000ff;" x="83.809696" xlink:href="#m84dcf10111" y="286.839212"/>
     <use style="fill:#0000ff;stroke:#0000ff;" x="84.025234" xlink:href="#m84dcf10111" y="286.392927"/>
     <use style="fill:#0000ff;stroke:#0000ff;" x="84.241644" xlink:href="#m84dcf10111" y="286.264019"/>
     <use style="fill:#0000ff;stroke:#0000ff;" x="84.458933" xlink:href="#m84dcf10111" y="286.12091"/>
     <use style="fill:#0000ff;stroke:#0000ff;" x="84.677108" xlink:href="#m84dcf10111" y="285.776207"/>
     <use style="fill:#0000ff;stroke:#0000ff;" x="84.896177" xlink:href="#m84dcf10111" y="285.601022"/>
     <use style="fill:#0000ff;stroke:#0000ff;" x="85.116147" xlink:href="#m84dcf10111" y="285.533863"/>
     <use style="fill:#0000ff;stroke:#0000ff;" x="85.337025" xlink:href="#m84dcf10111" y="285.506742"/>
     <use style="fill:#0000ff;stroke:#0000ff;" x="85.558818" xlink:href="#m84dcf10111" y="285.476174"/>
     <use style="fill:#0000ff;stroke:#0000ff;" x="85.781535" xlink:href="#m84dcf10111" y="285.163974"/>
     <use style="fill:#0000ff;stroke:#0000ff;" x="86.005184" xlink:href="#m84dcf10111" y="285.07481"/>
     <use style="fill:#0000ff;stroke:#0000ff;" x="86.229771" xlink:href="#m84dcf10111" y="284.618372"/>
     <use style="fill:#0000ff;stroke:#0000ff;" x="86.455305" xlink:href="#m84dcf10111" y="284.462589"/>
     <use style="fill:#0000ff;stroke:#0000ff;" x="86.681794" xlink:href="#m84dcf10111" y="284.404871"/>
     <use style="fill:#0000ff;stroke:#0000ff;" x="86.909246" xlink:href="#m84dcf10111" y="284.391693"/>
     <use style="fill:#0000ff;stroke:#0000ff;" x="87.13767" xlink:href="#m84dcf10111" y="283.742106"/>
     <use style="fill:#0000ff;stroke:#0000ff;" x="87.367073" xlink:href="#m84dcf10111" y="283.702909"/>
     <use style="fill:#0000ff;stroke:#0000ff;" x="87.597464" xlink:href="#m84dcf10111" y="282.837767"/>
     <use style="fill:#0000ff;stroke:#0000ff;" x="87.828851" xlink:href="#m84dcf10111" y="282.630151"/>
     <use style="fill:#0000ff;stroke:#0000ff;" x="88.061244" xlink:href="#m84dcf10111" y="282.401982"/>
     <use style="fill:#0000ff;stroke:#0000ff;" x="88.294651" xlink:href="#m84dcf10111" y="281.602998"/>
     <use style="fill:#0000ff;stroke:#0000ff;" x="88.529081" xlink:href="#m84dcf10111" y="281.460215"/>
     <use style="fill:#0000ff;stroke:#0000ff;" x="88.764542" xlink:href="#m84dcf10111" y="281.439757"/>
     <use style="fill:#0000ff;stroke:#0000ff;" x="89.001045" xlink:href="#m84dcf10111" y="281.408967"/>
     <use style="fill:#0000ff;stroke:#0000ff;" x="89.238598" xlink:href="#m84dcf10111" y="281.337479"/>
     <use style="fill:#0000ff;stroke:#0000ff;" x="89.477211" xlink:href="#m84dcf10111" y="281.253815"/>
     <use style="fill:#0000ff;stroke:#0000ff;" x="89.716892" xlink:href="#m84dcf10111" y="281.101352"/>
     <use style="fill:#0000ff;stroke:#0000ff;" x="89.957653" xlink:href="#m84dcf10111" y="281.061034"/>
     <use style="fill:#0000ff;stroke:#0000ff;" x="90.199502" xlink:href="#m84dcf10111" y="281.036451"/>
     <use style="fill:#0000ff;stroke:#0000ff;" x="90.442449" xlink:href="#m84dcf10111" y="280.88331"/>
     <use style="fill:#0000ff;stroke:#0000ff;" x="90.686505" xlink:href="#m84dcf10111" y="280.845841"/>
     <use style="fill:#0000ff;stroke:#0000ff;" x="90.931679" xlink:href="#m84dcf10111" y="280.681062"/>
     <use style="fill:#0000ff;stroke:#0000ff;" x="91.177983" xlink:href="#m84dcf10111" y="280.595773"/>
     <use style="fill:#0000ff;stroke:#0000ff;" x="91.425425" xlink:href="#m84dcf10111" y="280.55296"/>
     <use style="fill:#0000ff;stroke:#0000ff;" x="91.674018" xlink:href="#m84dcf10111" y="280.495824"/>
     <use style="fill:#0000ff;stroke:#0000ff;" x="91.923771" xlink:href="#m84dcf10111" y="280.47283"/>
     <use style="fill:#0000ff;stroke:#0000ff;" x="92.174696" xlink:href="#m84dcf10111" y="280.192306"/>
     <use style="fill:#0000ff;stroke:#0000ff;" x="92.426803" xlink:href="#m84dcf10111" y="280.099514"/>
     <use style="fill:#0000ff;stroke:#0000ff;" x="92.680105" xlink:href="#m84dcf10111" y="279.662624"/>
     <use style="fill:#0000ff;stroke:#0000ff;" x="92.934611" xlink:href="#m84dcf10111" y="279.612516"/>
     <use style="fill:#0000ff;stroke:#0000ff;" x="93.190334" xlink:href="#m84dcf10111" y="279.203923"/>
     <use style="fill:#0000ff;stroke:#0000ff;" x="93.447285" xlink:href="#m84dcf10111" y="279.00317"/>
     <use style="fill:#0000ff;stroke:#0000ff;" x="93.705477" xlink:href="#m84dcf10111" y="278.992396"/>
     <use style="fill:#0000ff;stroke:#0000ff;" x="93.964921" xlink:href="#m84dcf10111" y="278.868204"/>
     <use style="fill:#0000ff;stroke:#0000ff;" x="94.225629" xlink:href="#m84dcf10111" y="278.824274"/>
     <use style="fill:#0000ff;stroke:#0000ff;" x="94.487614" xlink:href="#m84dcf10111" y="278.758912"/>
     <use style="fill:#0000ff;stroke:#0000ff;" x="94.750889" xlink:href="#m84dcf10111" y="278.746416"/>
     <use style="fill:#0000ff;stroke:#0000ff;" x="95.015466" xlink:href="#m84dcf10111" y="278.671894"/>
     <use style="fill:#0000ff;stroke:#0000ff;" x="95.281357" xlink:href="#m84dcf10111" y="278.56182"/>
     <use style="fill:#0000ff;stroke:#0000ff;" x="95.548578" xlink:href="#m84dcf10111" y="278.533918"/>
     <use style="fill:#0000ff;stroke:#0000ff;" x="95.817139" xlink:href="#m84dcf10111" y="278.500066"/>
     <use style="fill:#0000ff;stroke:#0000ff;" x="96.087056" xlink:href="#m84dcf10111" y="278.440974"/>
     <use style="fill:#0000ff;stroke:#0000ff;" x="96.358342" xlink:href="#m84dcf10111" y="278.023102"/>
     <use style="fill:#0000ff;stroke:#0000ff;" x="96.63101" xlink:href="#m84dcf10111" y="277.451432"/>
     <use style="fill:#0000ff;stroke:#0000ff;" x="96.905076" xlink:href="#m84dcf10111" y="277.225191"/>
     <use style="fill:#0000ff;stroke:#0000ff;" x="97.180553" xlink:href="#m84dcf10111" y="277.037953"/>
     <use style="fill:#0000ff;stroke:#0000ff;" x="97.457456" xlink:href="#m84dcf10111" y="276.893966"/>
     <use style="fill:#0000ff;stroke:#0000ff;" x="97.735799" xlink:href="#m84dcf10111" y="276.739594"/>
     <use style="fill:#0000ff;stroke:#0000ff;" x="98.015599" xlink:href="#m84dcf10111" y="276.667967"/>
     <use style="fill:#0000ff;stroke:#0000ff;" x="98.29687" xlink:href="#m84dcf10111" y="276.650903"/>
     <use style="fill:#0000ff;stroke:#0000ff;" x="98.579628" xlink:href="#m84dcf10111" y="276.01044"/>
     <use style="fill:#0000ff;stroke:#0000ff;" x="98.863888" xlink:href="#m84dcf10111" y="275.419268"/>
     <use style="fill:#0000ff;stroke:#0000ff;" x="99.149667" xlink:href="#m84dcf10111" y="275.200673"/>
     <use style="fill:#0000ff;stroke:#0000ff;" x="99.436981" xlink:href="#m84dcf10111" y="275.150611"/>
     <use style="fill:#0000ff;stroke:#0000ff;" x="99.725846" xlink:href="#m84dcf10111" y="274.993211"/>
     <use style="fill:#0000ff;stroke:#0000ff;" x="100.01628" xlink:href="#m84dcf10111" y="274.95218"/>
     <use style="fill:#0000ff;stroke:#0000ff;" x="100.308299" xlink:href="#m84dcf10111" y="274.774834"/>
     <use style="fill:#0000ff;stroke:#0000ff;" x="100.601921" xlink:href="#m84dcf10111" y="274.446292"/>
     <use style="fill:#0000ff;stroke:#0000ff;" x="100.897164" xlink:href="#m84dcf10111" y="274.376607"/>
     <use style="fill:#0000ff;stroke:#0000ff;" x="101.194045" xlink:href="#m84dcf10111" y="273.553444"/>
     <use style="fill:#0000ff;stroke:#0000ff;" x="101.492583" xlink:href="#m84dcf10111" y="273.250656"/>
     <use style="fill:#0000ff;stroke:#0000ff;" x="101.792797" xlink:href="#m84dcf10111" y="273.142955"/>
     <use style="fill:#0000ff;stroke:#0000ff;" x="102.094705" xlink:href="#m84dcf10111" y="273.058372"/>
     <use style="fill:#0000ff;stroke:#0000ff;" x="102.398326" xlink:href="#m84dcf10111" y="272.981121"/>
     <use style="fill:#0000ff;stroke:#0000ff;" x="102.703681" xlink:href="#m84dcf10111" y="272.969984"/>
     <use style="fill:#0000ff;stroke:#0000ff;" x="103.010789" xlink:href="#m84dcf10111" y="272.386999"/>
     <use style="fill:#0000ff;stroke:#0000ff;" x="103.31967" xlink:href="#m84dcf10111" y="272.254085"/>
     <use style="fill:#0000ff;stroke:#0000ff;" x="103.630346" xlink:href="#m84dcf10111" y="272.034471"/>
     <use style="fill:#0000ff;stroke:#0000ff;" x="103.942836" xlink:href="#m84dcf10111" y="271.833445"/>
     <use style="fill:#0000ff;stroke:#0000ff;" x="104.257162" xlink:href="#m84dcf10111" y="271.807378"/>
     <use style="fill:#0000ff;stroke:#0000ff;" x="104.573346" xlink:href="#m84dcf10111" y="271.807152"/>
     <use style="fill:#0000ff;stroke:#0000ff;" x="104.89141" xlink:href="#m84dcf10111" y="271.74151"/>
     <use style="fill:#0000ff;stroke:#0000ff;" x="105.211377" xlink:href="#m84dcf10111" y="271.198964"/>
     <use style="fill:#0000ff;stroke:#0000ff;" x="105.533269" xlink:href="#m84dcf10111" y="271.048438"/>
     <use style="fill:#0000ff;stroke:#0000ff;" x="105.85711" xlink:href="#m84dcf10111" y="270.916421"/>
     <use style="fill:#0000ff;stroke:#0000ff;" x="106.182923" xlink:href="#m84dcf10111" y="270.695246"/>
     <use style="fill:#0000ff;stroke:#0000ff;" x="106.510733" xlink:href="#m84dcf10111" y="270.594292"/>
     <use style="fill:#0000ff;stroke:#0000ff;" x="106.840565" xlink:href="#m84dcf10111" y="270.049261"/>
     <use style="fill:#0000ff;stroke:#0000ff;" x="107.172442" xlink:href="#m84dcf10111" y="269.938863"/>
     <use style="fill:#0000ff;stroke:#0000ff;" x="107.506391" xlink:href="#m84dcf10111" y="269.842791"/>
     <use style="fill:#0000ff;stroke:#0000ff;" x="107.842439" xlink:href="#m84dcf10111" y="269.358829"/>
     <use style="fill:#0000ff;stroke:#0000ff;" x="108.180611" xlink:href="#m84dcf10111" y="269.129969"/>
     <use style="fill:#0000ff;stroke:#0000ff;" x="108.520934" xlink:href="#m84dcf10111" y="269.087741"/>
     <use style="fill:#0000ff;stroke:#0000ff;" x="108.863436" xlink:href="#m84dcf10111" y="268.932725"/>
     <use style="fill:#0000ff;stroke:#0000ff;" x="109.208145" xlink:href="#m84dcf10111" y="268.780369"/>
     <use style="fill:#0000ff;stroke:#0000ff;" x="109.555091" xlink:href="#m84dcf10111" y="268.739975"/>
     <use style="fill:#0000ff;stroke:#0000ff;" x="109.904301" xlink:href="#m84dcf10111" y="268.640049"/>
     <use style="fill:#0000ff;stroke:#0000ff;" x="110.255805" xlink:href="#m84dcf10111" y="268.607498"/>
     <use style="fill:#0000ff;stroke:#0000ff;" x="110.609635" xlink:href="#m84dcf10111" y="268.60482"/>
     <use style="fill:#0000ff;stroke:#0000ff;" x="110.965821" xlink:href="#m84dcf10111" y="267.891113"/>
     <use style="fill:#0000ff;stroke:#0000ff;" x="111.324394" xlink:href="#m84dcf10111" y="267.668979"/>
     <use style="fill:#0000ff;stroke:#0000ff;" x="111.685388" xlink:href="#m84dcf10111" y="267.536406"/>
     <use style="fill:#0000ff;stroke:#0000ff;" x="112.048834" xlink:href="#m84dcf10111" y="267.160298"/>
     <use style="fill:#0000ff;stroke:#0000ff;" x="112.414766" xlink:href="#m84dcf10111" y="267.093086"/>
     <use style="fill:#0000ff;stroke:#0000ff;" x="112.783219" xlink:href="#m84dcf10111" y="266.99377"/>
     <use style="fill:#0000ff;stroke:#0000ff;" x="113.154227" xlink:href="#m84dcf10111" y="266.643068"/>
     <use style="fill:#0000ff;stroke:#0000ff;" x="113.527826" xlink:href="#m84dcf10111" y="265.668039"/>
     <use style="fill:#0000ff;stroke:#0000ff;" x="113.904053" xlink:href="#m84dcf10111" y="265.588952"/>
     <use style="fill:#0000ff;stroke:#0000ff;" x="114.282945" xlink:href="#m84dcf10111" y="265.269559"/>
     <use style="fill:#0000ff;stroke:#0000ff;" x="114.66454" xlink:href="#m84dcf10111" y="264.954778"/>
     <use style="fill:#0000ff;stroke:#0000ff;" x="115.048876" xlink:href="#m84dcf10111" y="264.68661"/>
     <use style="fill:#0000ff;stroke:#0000ff;" x="115.435994" xlink:href="#m84dcf10111" y="263.955759"/>
     <use style="fill:#0000ff;stroke:#0000ff;" x="115.825934" xlink:href="#m84dcf10111" y="263.565357"/>
     <use style="fill:#0000ff;stroke:#0000ff;" x="116.218737" xlink:href="#m84dcf10111" y="263.511677"/>
     <use style="fill:#0000ff;stroke:#0000ff;" x="116.614446" xlink:href="#m84dcf10111" y="263.479741"/>
     <use style="fill:#0000ff;stroke:#0000ff;" x="117.013104" xlink:href="#m84dcf10111" y="263.395132"/>
     <use style="fill:#0000ff;stroke:#0000ff;" x="117.414755" xlink:href="#m84dcf10111" y="263.028633"/>
     <use style="fill:#0000ff;stroke:#0000ff;" x="117.819445" xlink:href="#m84dcf10111" y="262.385056"/>
     <use style="fill:#0000ff;stroke:#0000ff;" x="118.22722" xlink:href="#m84dcf10111" y="262.061905"/>
     <use style="fill:#0000ff;stroke:#0000ff;" x="118.638127" xlink:href="#m84dcf10111" y="261.191944"/>
     <use style="fill:#0000ff;stroke:#0000ff;" x="119.052216" xlink:href="#m84dcf10111" y="261.112788"/>
     <use style="fill:#0000ff;stroke:#0000ff;" x="119.469534" xlink:href="#m84dcf10111" y="260.182568"/>
     <use style="fill:#0000ff;stroke:#0000ff;" x="119.890134" xlink:href="#m84dcf10111" y="259.918992"/>
     <use style="fill:#0000ff;stroke:#0000ff;" x="120.314067" xlink:href="#m84dcf10111" y="259.392284"/>
     <use style="fill:#0000ff;stroke:#0000ff;" x="120.741387" xlink:href="#m84dcf10111" y="259.375371"/>
     <use style="fill:#0000ff;stroke:#0000ff;" x="121.172148" xlink:href="#m84dcf10111" y="259.178419"/>
     <use style="fill:#0000ff;stroke:#0000ff;" x="121.606406" xlink:href="#m84dcf10111" y="259.16194"/>
     <use style="fill:#0000ff;stroke:#0000ff;" x="122.044218" xlink:href="#m84dcf10111" y="258.068161"/>
     <use style="fill:#0000ff;stroke:#0000ff;" x="122.485643" xlink:href="#m84dcf10111" y="257.884278"/>
     <use style="fill:#0000ff;stroke:#0000ff;" x="122.930741" xlink:href="#m84dcf10111" y="257.822951"/>
     <use style="fill:#0000ff;stroke:#0000ff;" x="123.379574" xlink:href="#m84dcf10111" y="257.731791"/>
     <use style="fill:#0000ff;stroke:#0000ff;" x="123.832204" xlink:href="#m84dcf10111" y="257.642335"/>
     <use style="fill:#0000ff;stroke:#0000ff;" x="124.288697" xlink:href="#m84dcf10111" y="257.510978"/>
     <use style="fill:#0000ff;stroke:#0000ff;" x="124.74912" xlink:href="#m84dcf10111" y="257.390298"/>
     <use style="fill:#0000ff;stroke:#0000ff;" x="125.213539" xlink:href="#m84dcf10111" y="257.123546"/>
     <use style="fill:#0000ff;stroke:#0000ff;" x="125.682026" xlink:href="#m84dcf10111" y="256.505234"/>
     <use style="fill:#0000ff;stroke:#0000ff;" x="126.154652" xlink:href="#m84dcf10111" y="255.559874"/>
     <use style="fill:#0000ff;stroke:#0000ff;" x="126.631492" xlink:href="#m84dcf10111" y="254.897646"/>
     <use style="fill:#0000ff;stroke:#0000ff;" x="127.11262" xlink:href="#m84dcf10111" y="254.797309"/>
     <use style="fill:#0000ff;stroke:#0000ff;" x="127.598115" xlink:href="#m84dcf10111" y="254.726075"/>
     <use style="fill:#0000ff;stroke:#0000ff;" x="128.088057" xlink:href="#m84dcf10111" y="254.536549"/>
     <use style="fill:#0000ff;stroke:#0000ff;" x="128.582527" xlink:href="#m84dcf10111" y="253.937691"/>
     <use style="fill:#0000ff;stroke:#0000ff;" x="129.081611" xlink:href="#m84dcf10111" y="253.924228"/>
     <use style="fill:#0000ff;stroke:#0000ff;" x="129.585395" xlink:href="#m84dcf10111" y="253.53512"/>
     <use style="fill:#0000ff;stroke:#0000ff;" x="130.093969" xlink:href="#m84dcf10111" y="253.388105"/>
     <use style="fill:#0000ff;stroke:#0000ff;" x="130.607425" xlink:href="#m84dcf10111" y="253.152502"/>
     <use style="fill:#0000ff;stroke:#0000ff;" x="131.125857" xlink:href="#m84dcf10111" y="253.114204"/>
     <use style="fill:#0000ff;stroke:#0000ff;" x="131.649362" xlink:href="#m84dcf10111" y="252.595354"/>
     <use style="fill:#0000ff;stroke:#0000ff;" x="132.178042" xlink:href="#m84dcf10111" y="251.891966"/>
     <use style="fill:#0000ff;stroke:#0000ff;" x="132.711999" xlink:href="#m84dcf10111" y="251.692464"/>
     <use style="fill:#0000ff;stroke:#0000ff;" x="133.251339" xlink:href="#m84dcf10111" y="251.124631"/>
     <use style="fill:#0000ff;stroke:#0000ff;" x="133.796173" xlink:href="#m84dcf10111" y="251.085129"/>
     <use style="fill:#0000ff;stroke:#0000ff;" x="134.346613" xlink:href="#m84dcf10111" y="250.832815"/>
     <use style="fill:#0000ff;stroke:#0000ff;" x="134.902776" xlink:href="#m84dcf10111" y="250.743367"/>
     <use style="fill:#0000ff;stroke:#0000ff;" x="135.464782" xlink:href="#m84dcf10111" y="250.728317"/>
     <use style="fill:#0000ff;stroke:#0000ff;" x="136.032756" xlink:href="#m84dcf10111" y="250.627872"/>
     <use style="fill:#0000ff;stroke:#0000ff;" x="136.606825" xlink:href="#m84dcf10111" y="250.600519"/>
     <use style="fill:#0000ff;stroke:#0000ff;" x="137.187122" xlink:href="#m84dcf10111" y="250.588716"/>
     <use style="fill:#0000ff;stroke:#0000ff;" x="137.773783" xlink:href="#m84dcf10111" y="250.544198"/>
     <use style="fill:#0000ff;stroke:#0000ff;" x="138.366949" xlink:href="#m84dcf10111" y="250.005824"/>
     <use style="fill:#0000ff;stroke:#0000ff;" x="138.966767" xlink:href="#m84dcf10111" y="249.49851"/>
     <use style="fill:#0000ff;stroke:#0000ff;" x="139.573387" xlink:href="#m84dcf10111" y="248.454913"/>
     <use style="fill:#0000ff;stroke:#0000ff;" x="140.186965" xlink:href="#m84dcf10111" y="248.409607"/>
     <use style="fill:#0000ff;stroke:#0000ff;" x="140.807662" xlink:href="#m84dcf10111" y="247.742641"/>
     <use style="fill:#0000ff;stroke:#0000ff;" x="141.435647" xlink:href="#m84dcf10111" y="247.529697"/>
     <use style="fill:#0000ff;stroke:#0000ff;" x="142.071091" xlink:href="#m84dcf10111" y="246.947768"/>
     <use style="fill:#0000ff;stroke:#0000ff;" x="142.714175" xlink:href="#m84dcf10111" y="245.300189"/>
     <use style="fill:#0000ff;stroke:#0000ff;" x="143.365084" xlink:href="#m84dcf10111" y="245.260765"/>
     <use style="fill:#0000ff;stroke:#0000ff;" x="144.024011" xlink:href="#m84dcf10111" y="244.963261"/>
     <use style="fill:#0000ff;stroke:#0000ff;" x="144.691157" xlink:href="#m84dcf10111" y="244.604528"/>
     <use style="fill:#0000ff;stroke:#0000ff;" x="145.366727" xlink:href="#m84dcf10111" y="243.018254"/>
     <use style="fill:#0000ff;stroke:#0000ff;" x="146.050939" xlink:href="#m84dcf10111" y="242.953516"/>
     <use style="fill:#0000ff;stroke:#0000ff;" x="146.744017" xlink:href="#m84dcf10111" y="242.389974"/>
     <use style="fill:#0000ff;stroke:#0000ff;" x="147.446192" xlink:href="#m84dcf10111" y="242.185785"/>
     <use style="fill:#0000ff;stroke:#0000ff;" x="148.157706" xlink:href="#m84dcf10111" y="241.784462"/>
     <use style="fill:#0000ff;stroke:#0000ff;" x="148.878813" xlink:href="#m84dcf10111" y="241.751179"/>
     <use style="fill:#0000ff;stroke:#0000ff;" x="149.609773" xlink:href="#m84dcf10111" y="240.292645"/>
     <use style="fill:#0000ff;stroke:#0000ff;" x="150.350861" xlink:href="#m84dcf10111" y="240.114527"/>
     <use style="fill:#0000ff;stroke:#0000ff;" x="151.102359" xlink:href="#m84dcf10111" y="240.089488"/>
     <use style="fill:#0000ff;stroke:#0000ff;" x="151.864566" xlink:href="#m84dcf10111" y="239.716781"/>
     <use style="fill:#0000ff;stroke:#0000ff;" x="152.637791" xlink:href="#m84dcf10111" y="238.74101"/>
     <use style="fill:#0000ff;stroke:#0000ff;" x="153.422356" xlink:href="#m84dcf10111" y="238.643683"/>
     <use style="fill:#0000ff;stroke:#0000ff;" x="154.2186" xlink:href="#m84dcf10111" y="236.880202"/>
     <use style="fill:#0000ff;stroke:#0000ff;" x="155.026876" xlink:href="#m84dcf10111" y="236.307863"/>
     <use style="fill:#0000ff;stroke:#0000ff;" x="155.847552" xlink:href="#m84dcf10111" y="234.590443"/>
     <use style="fill:#0000ff;stroke:#0000ff;" x="156.681015" xlink:href="#m84dcf10111" y="234.363036"/>
     <use style="fill:#0000ff;stroke:#0000ff;" x="157.527671" xlink:href="#m84dcf10111" y="234.306103"/>
     <use style="fill:#0000ff;stroke:#0000ff;" x="158.387942" xlink:href="#m84dcf10111" y="234.126014"/>
     <use style="fill:#0000ff;stroke:#0000ff;" x="159.262275" xlink:href="#m84dcf10111" y="233.907997"/>
     <use style="fill:#0000ff;stroke:#0000ff;" x="160.151137" xlink:href="#m84dcf10111" y="233.636859"/>
     <use style="fill:#0000ff;stroke:#0000ff;" x="161.055018" xlink:href="#m84dcf10111" y="233.300512"/>
     <use style="fill:#0000ff;stroke:#0000ff;" x="161.974435" xlink:href="#m84dcf10111" y="233.001462"/>
     <use style="fill:#0000ff;stroke:#0000ff;" x="162.909932" xlink:href="#m84dcf10111" y="232.130022"/>
     <use style="fill:#0000ff;stroke:#0000ff;" x="163.86208" xlink:href="#m84dcf10111" y="232.02779"/>
     <use style="fill:#0000ff;stroke:#0000ff;" x="164.831484" xlink:href="#m84dcf10111" y="231.328138"/>
     <use style="fill:#0000ff;stroke:#0000ff;" x="165.818781" xlink:href="#m84dcf10111" y="230.69549"/>
     <use style="fill:#0000ff;stroke:#0000ff;" x="166.824643" xlink:href="#m84dcf10111" y="230.428513"/>
     <use style="fill:#0000ff;stroke:#0000ff;" x="167.849782" xlink:href="#m84dcf10111" y="230.309309"/>
     <use style="fill:#0000ff;stroke:#0000ff;" x="168.894951" xlink:href="#m84dcf10111" y="229.732718"/>
     <use style="fill:#0000ff;stroke:#0000ff;" x="169.960949" xlink:href="#m84dcf10111" y="229.329112"/>
     <use style="fill:#0000ff;stroke:#0000ff;" x="171.048623" xlink:href="#m84dcf10111" y="227.846644"/>
     <use style="fill:#0000ff;stroke:#0000ff;" x="172.158873" xlink:href="#m84dcf10111" y="226.9758"/>
     <use style="fill:#0000ff;stroke:#0000ff;" x="173.292655" xlink:href="#m84dcf10111" y="224.217728"/>
     <use style="fill:#0000ff;stroke:#0000ff;" x="174.450989" xlink:href="#m84dcf10111" y="223.706404"/>
     <use style="fill:#0000ff;stroke:#0000ff;" x="175.634962" xlink:href="#m84dcf10111" y="222.114181"/>
     <use style="fill:#0000ff;stroke:#0000ff;" x="176.845735" xlink:href="#m84dcf10111" y="221.558906"/>
     <use style="fill:#0000ff;stroke:#0000ff;" x="178.084548" xlink:href="#m84dcf10111" y="221.2104"/>
     <use style="fill:#0000ff;stroke:#0000ff;" x="179.352733" xlink:href="#m84dcf10111" y="218.766882"/>
     <use style="fill:#0000ff;stroke:#0000ff;" x="180.651714" xlink:href="#m84dcf10111" y="218.508428"/>
     <use style="fill:#0000ff;stroke:#0000ff;" x="181.983026" xlink:href="#m84dcf10111" y="218.017948"/>
     <use style="fill:#0000ff;stroke:#0000ff;" x="183.348319" xlink:href="#m84dcf10111" y="217.642225"/>
     <use style="fill:#0000ff;stroke:#0000ff;" x="184.749373" xlink:href="#m84dcf10111" y="217.12238"/>
     <use style="fill:#0000ff;stroke:#0000ff;" x="186.188111" xlink:href="#m84dcf10111" y="216.141021"/>
     <use style="fill:#0000ff;stroke:#0000ff;" x="187.666618" xlink:href="#m84dcf10111" y="214.835388"/>
     <use style="fill:#0000ff;stroke:#0000ff;" x="189.187155" xlink:href="#m84dcf10111" y="214.30117"/>
     <use style="fill:#0000ff;stroke:#0000ff;" x="190.752181" xlink:href="#m84dcf10111" y="213.137811"/>
     <use style="fill:#0000ff;stroke:#0000ff;" x="192.364378" xlink:href="#m84dcf10111" y="212.758973"/>
     <use style="fill:#0000ff;stroke:#0000ff;" x="194.026678" xlink:href="#m84dcf10111" y="209.558516"/>
     <use style="fill:#0000ff;stroke:#0000ff;" x="195.742296" xlink:href="#m84dcf10111" y="209.171532"/>
     <use style="fill:#0000ff;stroke:#0000ff;" x="197.514766" xlink:href="#m84dcf10111" y="207.234031"/>
     <use style="fill:#0000ff;stroke:#0000ff;" x="199.347985" xlink:href="#m84dcf10111" y="205.576121"/>
     <use style="fill:#0000ff;stroke:#0000ff;" x="201.246266" xlink:href="#m84dcf10111" y="203.25707"/>
     <use style="fill:#0000ff;stroke:#0000ff;" x="203.214396" xlink:href="#m84dcf10111" y="202.935637"/>
     <use style="fill:#0000ff;stroke:#0000ff;" x="205.257715" xlink:href="#m84dcf10111" y="200.251349"/>
     <use style="fill:#0000ff;stroke:#0000ff;" x="207.382194" xlink:href="#m84dcf10111" y="200.241945"/>
     <use style="fill:#0000ff;stroke:#0000ff;" x="209.59455" xlink:href="#m84dcf10111" y="195.901012"/>
     <use style="fill:#0000ff;stroke:#0000ff;" x="211.902368" xlink:href="#m84dcf10111" y="195.490352"/>
     <use style="fill:#0000ff;stroke:#0000ff;" x="214.314257" xlink:href="#m84dcf10111" y="193.653358"/>
     <use style="fill:#0000ff;stroke:#0000ff;" x="216.84005" xlink:href="#m84dcf10111" y="190.272395"/>
     <use style="fill:#0000ff;stroke:#0000ff;" x="219.491041" xlink:href="#m84dcf10111" y="188.089249"/>
     <use style="fill:#0000ff;stroke:#0000ff;" x="222.280292" xlink:href="#m84dcf10111" y="187.320222"/>
     <use style="fill:#0000ff;stroke:#0000ff;" x="225.223021" xlink:href="#m84dcf10111" y="186.705055"/>
     <use style="fill:#0000ff;stroke:#0000ff;" x="228.337107" xlink:href="#m84dcf10111" y="181.835074"/>
     <use style="fill:#0000ff;stroke:#0000ff;" x="231.643747" xlink:href="#m84dcf10111" y="178.29129"/>
     <use style="fill:#0000ff;stroke:#0000ff;" x="235.168333" xlink:href="#m84dcf10111" y="176.648589"/>
     <use style="fill:#0000ff;stroke:#0000ff;" x="238.941635" xlink:href="#m84dcf10111" y="176.056147"/>
     <use style="fill:#0000ff;stroke:#0000ff;" x="243.001438" xlink:href="#m84dcf10111" y="175.874524"/>
     <use style="fill:#0000ff;stroke:#0000ff;" x="247.394851" xlink:href="#m84dcf10111" y="171.150464"/>
     <use style="fill:#0000ff;stroke:#0000ff;" x="252.181649" xlink:href="#m84dcf10111" y="170.540361"/>
     <use style="fill:#0000ff;stroke:#0000ff;" x="257.43927" xlink:href="#m84dcf10111" y="168.99418"/>
     <use style="fill:#0000ff;stroke:#0000ff;" x="263.270541" xlink:href="#m84dcf10111" y="165.269453"/>
     <use style="fill:#0000ff;stroke:#0000ff;" x="269.816145" xlink:href="#m84dcf10111" y="154.077325"/>
     <use style="fill:#0000ff;stroke:#0000ff;" x="277.275851" xlink:href="#m84dcf10111" y="146.36483"/>
     <use style="fill:#0000ff;stroke:#0000ff;" x="285.947062" xlink:href="#m84dcf10111" y="144.34198"/>
     <use style="fill:#0000ff;stroke:#0000ff;" x="296.301057" xlink:href="#m84dcf10111" y="139.963711"/>
     <use style="fill:#0000ff;stroke:#0000ff;" x="309.152154" xlink:href="#m84dcf10111" y="131.671279"/>
     <use style="fill:#0000ff;stroke:#0000ff;" x="326.100917" xlink:href="#m84dcf10111" y="110.692215"/>
     <use style="fill:#0000ff;stroke:#0000ff;" x="351.053561" xlink:href="#m84dcf10111" y="85.108067"/>
     <use style="fill:#0000ff;stroke:#0000ff;" x="398.487273" xlink:href="#m84dcf10111" y="53.568"/>
    </g>
   </g>
   <g id="line2d_16">
    <path clip-path="url(#pb76f2b9bef)" d="M 73.832727 294.17985 
L 398.487273 62.837181 
L 398.487273 62.837181 
" style="fill:none;stroke:#ff0000;stroke-linecap:square;stroke-width:1.5;"/>
   </g>
   <g id="patch_3">
    <path d="M 57.6 307.584 
L 57.6 41.472 
" style="fill:none;stroke:#000000;stroke-linecap:square;stroke-linejoin:miter;stroke-width:0.8;"/>
   </g>
   <g id="patch_4">
    <path d="M 414.72 307.584 
L 414.72 41.472 
" style="fill:none;stroke:#000000;stroke-linecap:square;stroke-linejoin:miter;stroke-width:0.8;"/>
   </g>
   <g id="patch_5">
    <path d="M 57.6 307.584 
L 414.72 307.584 
" style="fill:none;stroke:#000000;stroke-linecap:square;stroke-linejoin:miter;stroke-width:0.8;"/>
   </g>
   <g id="patch_6">
    <path d="M 57.6 41.472 
L 414.72 41.472 
" style="fill:none;stroke:#000000;stroke-linecap:square;stroke-linejoin:miter;stroke-width:0.8;"/>
   </g>
   <g id="text_17">
    <!-- Probability Plot -->
    <defs>
     <path d="M 19.671875 64.796875 
L 19.671875 37.40625 
L 32.078125 37.40625 
Q 38.96875 37.40625 42.71875 40.96875 
Q 46.484375 44.53125 46.484375 51.125 
Q 46.484375 57.671875 42.71875 61.234375 
Q 38.96875 64.796875 32.078125 64.796875 
z
M 9.8125 72.90625 
L 32.078125 72.90625 
Q 44.34375 72.90625 50.609375 67.359375 
Q 56.890625 61.8125 56.890625 51.125 
Q 56.890625 40.328125 50.609375 34.8125 
Q 44.34375 29.296875 32.078125 29.296875 
L 19.671875 29.296875 
L 19.671875 0 
L 9.8125 0 
z
" id="DejaVuSans-80"/>
     <path d="M 48.6875 27.296875 
Q 48.6875 37.203125 44.609375 42.84375 
Q 40.53125 48.484375 33.40625 48.484375 
Q 26.265625 48.484375 22.1875 42.84375 
Q 18.109375 37.203125 18.109375 27.296875 
Q 18.109375 17.390625 22.1875 11.75 
Q 26.265625 6.109375 33.40625 6.109375 
Q 40.53125 6.109375 44.609375 11.75 
Q 48.6875 17.390625 48.6875 27.296875 
z
M 18.109375 46.390625 
Q 20.953125 51.265625 25.265625 53.625 
Q 29.59375 56 35.59375 56 
Q 45.5625 56 51.78125 48.09375 
Q 58.015625 40.1875 58.015625 27.296875 
Q 58.015625 14.40625 51.78125 6.484375 
Q 45.5625 -1.421875 35.59375 -1.421875 
Q 29.59375 -1.421875 25.265625 0.953125 
Q 20.953125 3.328125 18.109375 8.203125 
L 18.109375 0 
L 9.078125 0 
L 9.078125 75.984375 
L 18.109375 75.984375 
z
" id="DejaVuSans-98"/>
     <path d="M 32.171875 -5.078125 
Q 28.375 -14.84375 24.75 -17.8125 
Q 21.140625 -20.796875 15.09375 -20.796875 
L 7.90625 -20.796875 
L 7.90625 -13.28125 
L 13.1875 -13.28125 
Q 16.890625 -13.28125 18.9375 -11.515625 
Q 21 -9.765625 23.484375 -3.21875 
L 25.09375 0.875 
L 2.984375 54.6875 
L 12.5 54.6875 
L 29.59375 11.921875 
L 46.6875 54.6875 
L 56.203125 54.6875 
z
" id="DejaVuSans-121"/>
    </defs>
    <g transform="translate(190.993125 35.472)scale(0.12 -0.12)">
     <use xlink:href="#DejaVuSans-80"/>
     <use x="60.287109" xlink:href="#DejaVuSans-114"/>
     <use x="101.369141" xlink:href="#DejaVuSans-111"/>
     <use x="162.550781" xlink:href="#DejaVuSans-98"/>
     <use x="226.027344" xlink:href="#DejaVuSans-97"/>
     <use x="287.306641" xlink:href="#DejaVuSans-98"/>
     <use x="350.783203" xlink:href="#DejaVuSans-105"/>
     <use x="378.566406" xlink:href="#DejaVuSans-108"/>
     <use x="406.349609" xlink:href="#DejaVuSans-105"/>
     <use x="434.132812" xlink:href="#DejaVuSans-116"/>
     <use x="473.341797" xlink:href="#DejaVuSans-121"/>
     <use x="532.521484" xlink:href="#DejaVuSans-32"/>
     <use x="564.308594" xlink:href="#DejaVuSans-80"/>
     <use x="624.611328" xlink:href="#DejaVuSans-108"/>
     <use x="652.394531" xlink:href="#DejaVuSans-111"/>
     <use x="713.576172" xlink:href="#DejaVuSans-116"/>
    </g>
   </g>
  </g>
 </g>
 <defs>
  <clipPath id="pb76f2b9bef">
   <rect height="266.112" width="357.12" x="57.6" y="41.472"/>
  </clipPath>
 </defs>
</svg>
